<svg width="221" height="72" viewBox="0 0 221 72" fill="none" xmlns="http://www.w3.org/2000/svg">
<path d="M101.624 46.2531V9.71509H121.563V17.9321H110.552V24.1221H121.18V32.3391H110.552V46.2541H101.624V46.2531ZM164.192 46.2531V9.71509H173.503V46.2531H164.192ZM145.929 9.71609L116.794 46.2531H128.869L148.689 21.3961V46.2531H158.001V9.71509L145.929 9.71609ZM197.88 33.8181C203.414 32.8871 206.973 28.3941 206.973 22.3691C206.973 18.3691 205.275 14.6991 202.482 12.3451C200.018 10.3171 197.443 9.71509 191.253 9.71509H179.695V17.9321H192.019C195.854 17.9321 197.99 19.6861 197.99 22.9161C197.99 26.1481 195.799 28.0661 191.911 28.0661L179.696 28.0651V34.4211H188.626L197.115 46.2531H207.797L197.88 33.8181Z" fill="#00518E"/>
<path d="M41.184 25.988H18.208V33.899H29.725C28.795 37.738 25.537 40.124 21.175 40.124C14.368 40.124 9.89 35.296 9.89 28.081C9.89 21.858 14.427 17.203 20.478 17.203C24.141 17.203 27.224 19.008 28.969 22.264H40.08C37.87 14.296 29.61 8.47803 20.767 8.47803C9.017 8.47803 0 17.203 0 28.488C0 39.832 9.017 48.791 20.534 48.791C32.343 48.791 41.301 39.832 41.301 27.965C41.301 27.326 41.243 26.918 41.184 25.988V25.988ZM57.292 18.426C56.165 21.804 55.595 25.613 55.577 29.373C58.896 29.595 61.974 29.727 65.01 29.769V18.812C62.4338 18.7666 59.8598 18.6379 57.292 18.426V18.426ZM67.938 8.63503C67.711 8.61403 67.481 8.60003 67.252 8.58603V17.365C69.546 17.349 71.879 17.252 74.473 17.067C73.02 13.376 70.845 10.329 67.938 8.63503V8.63503ZM64.39 8.59103C61.466 10.267 59.276 13.307 57.81 16.999C60.413 17.201 62.731 17.318 65.01 17.354V8.55703C64.802 8.56503 64.596 8.57703 64.39 8.59103V8.59103ZM76.678 29.494C76.673 25.721 76.112 21.893 74.989 18.497C72.206 18.699 69.716 18.805 67.253 18.821V29.783C70.3968 29.776 73.5397 29.6797 76.678 29.494V29.494ZM68.37 48.703C70.86 47.56 72.939 45.149 74.398 41.797C72.065 41.893 69.679 41.942 67.252 41.951V48.801C67.628 48.777 68 48.745 68.37 48.703V48.703ZM77.28 18.317C78.414 21.771 78.971 25.596 78.984 29.35C81.324 29.191 83.785 28.991 86.451 28.745V28.723C86.451 24.637 85.276 20.88 83.239 17.74C81.071 17.969 79.107 18.161 77.28 18.317V18.317ZM55.601 30.84C55.648 32.262 55.774 33.669 55.981 35.031C56.246 36.8215 56.6782 38.5832 57.272 40.293C59.881 40.406 62.46 40.466 65.011 40.485V31.228C61.8715 31.1808 58.7337 31.0514 55.601 30.84V30.84ZM64.026 48.769C64.351 48.796 64.68 48.816 65.01 48.829V41.943C62.647 41.925 60.262 41.873 57.851 41.775C59.337 45.203 61.469 47.651 64.026 48.769ZM74.979 40.31C75.5774 38.5946 76.012 36.8264 76.277 35.029C76.478 33.704 76.603 32.338 76.653 30.955C73.378 31.14 70.298 31.238 67.252 31.241V40.492C69.883 40.482 72.463 40.424 74.979 40.31V40.31ZM86.392 30.221C83.76 30.459 81.305 30.656 78.96 30.813C78.9164 32.2526 78.7885 33.6884 78.577 35.113C78.3229 36.8311 77.9221 38.5243 77.379 40.174C79.35 40.057 81.297 39.918 83.192 39.737C85.0561 36.8915 86.158 33.6147 86.392 30.221V30.221ZM54.877 40.168C54.3359 38.5214 53.9364 36.8316 53.683 35.117C53.4656 33.6457 53.3364 32.1628 53.296 30.676C50.869 30.492 48.308 30.266 45.536 29.996C45.744 33.614 46.874 36.941 48.706 39.76C50.778 39.928 52.833 40.058 54.877 40.168ZM76.769 16.889C78.46 16.747 80.274 16.572 82.262 16.364C79.708 13.08 76.134 10.621 71.954 9.40003C74.036 11.342 75.625 13.947 76.769 16.889V16.889ZM55.429 41.66C53.5601 41.5656 51.6923 41.45 49.826 41.313C52.291 44.401 55.671 46.726 59.611 47.929C57.902 46.378 56.488 44.258 55.429 41.66ZM55.525 16.805C56.707 13.794 58.36 11.142 60.531 9.19703C56.131 10.316 52.38 12.806 49.722 16.216C51.845 16.45 53.756 16.645 55.525 16.805V16.805ZM76.828 41.672C75.824 44.131 74.501 46.159 72.912 47.683C76.4907 46.4581 79.653 44.2519 82.038 41.316C80.334 41.461 78.59 41.574 76.828 41.672V41.672ZM48.745 17.587C46.727 20.696 45.552 24.432 45.504 28.519C48.287 28.792 50.853 29.021 53.277 29.206C53.305 25.466 53.87 21.663 55.009 18.23C52.9189 18.037 50.8308 17.8227 48.745 17.587V17.587Z" fill="#EFC700"/>
<path d="M65.8129 0C55.0519 0 45.9179 5.329 40.8329 13.583C41.802 14.8428 42.6338 16.2025 43.3139 17.639C47.3919 9.479 55.7879 4.074 65.8359 4.074C80.1539 4.074 91.2979 15.007 91.2979 29.029C91.2979 42.991 80.1549 53.928 65.8359 53.928C55.6579 53.928 47.1149 48.327 43.1069 40.003C42.3823 41.4074 41.5244 42.7389 40.5449 43.979C45.5809 52.447 54.8839 58 65.8129 58C82.4699 58 95.4349 45.275 95.4349 29.033C95.4339 12.72 82.4699 0 65.8129 0Z" fill="#EFC700"/>
<path d="M102.184 69V57.992H109.512C110.067 57.992 110.573 58.1093 111.032 58.344C111.491 58.568 111.859 58.8827 112.136 59.288C112.413 59.6933 112.552 60.1627 112.552 60.696C112.552 61.2293 112.467 61.6667 112.296 62.008C112.125 62.3493 111.901 62.6213 111.624 62.824C111.347 63.016 111.043 63.16 110.712 63.256V63.32C111.096 63.4053 111.443 63.5547 111.752 63.768C112.072 63.9707 112.328 64.2587 112.52 64.632C112.712 65.0053 112.808 65.4853 112.808 66.072C112.808 66.6587 112.664 67.1707 112.376 67.608C112.088 68.0453 111.704 68.3867 111.224 68.632C110.744 68.8773 110.205 69 109.608 69H102.184ZM105.72 66.44H108.408C108.653 66.44 108.851 66.3547 109 66.184C109.149 66.0133 109.224 65.7573 109.224 65.416C109.224 65.256 109.187 65.112 109.112 64.984C109.048 64.8453 108.952 64.7387 108.824 64.664C108.707 64.5893 108.568 64.552 108.408 64.552H105.72V66.44ZM105.72 62.28H108.152C108.323 62.28 108.467 62.2427 108.584 62.168C108.701 62.0827 108.792 61.9653 108.856 61.816C108.931 61.6667 108.968 61.48 108.968 61.256C108.968 61.0213 108.888 60.824 108.728 60.664C108.568 60.4933 108.376 60.408 108.152 60.408H105.72V62.28ZM114.637 69V57.992H121.533C122.354 57.992 123.037 58.1573 123.581 58.488C124.136 58.8187 124.552 59.2507 124.829 59.784C125.106 60.3173 125.245 60.8933 125.245 61.512C125.245 62.216 125.08 62.8453 124.749 63.4C124.418 63.944 123.97 64.3813 123.405 64.712L125.565 69H121.597L119.917 65.304H118.173V69H114.637ZM118.173 62.856H120.653C120.93 62.856 121.165 62.7493 121.357 62.536C121.549 62.312 121.645 62.0187 121.645 61.656C121.645 61.432 121.602 61.2347 121.517 61.064C121.432 60.8933 121.314 60.76 121.165 60.664C121.016 60.5573 120.845 60.504 120.653 60.504H118.173V62.856ZM126.066 69L130.082 57.992H134.194L138.21 69H134.466L134.002 67.448H130.146L129.682 69H126.066ZM130.882 64.984H133.282L132.754 63.224C132.712 63.096 132.664 62.9413 132.61 62.76C132.557 62.5787 132.504 62.3867 132.45 62.184C132.397 61.9813 132.344 61.784 132.29 61.592C132.237 61.3893 132.189 61.2133 132.146 61.064H132.018C131.976 61.256 131.917 61.4747 131.842 61.72C131.778 61.9653 131.709 62.2213 131.634 62.488C131.56 62.744 131.485 62.9893 131.41 63.224L130.882 64.984ZM144.487 69.192C143.73 69.192 143.021 69.1333 142.359 69.016C141.709 68.9093 141.133 68.7227 140.631 68.456C140.141 68.1787 139.751 67.8 139.463 67.32C139.186 66.8293 139.047 66.216 139.047 65.48C139.047 65.4587 139.047 65.432 139.047 65.4C139.047 65.3573 139.053 65.3147 139.063 65.272H142.407C142.397 65.3147 142.391 65.3573 142.391 65.4C142.391 65.432 142.391 65.464 142.391 65.496C142.391 65.816 142.466 66.0613 142.615 66.232C142.765 66.4027 142.973 66.52 143.239 66.584C143.517 66.6373 143.826 66.664 144.167 66.664C144.295 66.664 144.429 66.664 144.567 66.664C144.717 66.6533 144.855 66.6373 144.983 66.616C145.122 66.584 145.245 66.5413 145.351 66.488C145.469 66.4347 145.559 66.3653 145.623 66.28C145.687 66.184 145.719 66.0667 145.719 65.928C145.719 65.7253 145.629 65.5653 145.447 65.448C145.266 65.3307 145.021 65.2293 144.711 65.144C144.402 65.0587 144.055 64.9787 143.671 64.904C143.287 64.8293 142.887 64.744 142.471 64.648C142.055 64.5413 141.655 64.408 141.271 64.248C140.887 64.088 140.541 63.8853 140.231 63.64C139.922 63.384 139.677 63.0693 139.495 62.696C139.314 62.312 139.223 61.8533 139.223 61.32C139.223 60.68 139.357 60.136 139.623 59.688C139.89 59.24 140.253 58.8773 140.711 58.6C141.181 58.3227 141.709 58.12 142.295 57.992C142.893 57.864 143.517 57.8 144.167 57.8C144.829 57.8 145.447 57.8693 146.023 58.008C146.61 58.136 147.127 58.3387 147.575 58.616C148.023 58.8933 148.375 59.2453 148.631 59.672C148.887 60.0987 149.021 60.6053 149.031 61.192V61.384H145.719V61.32C145.719 61.128 145.671 60.9467 145.575 60.776C145.479 60.6053 145.325 60.4667 145.111 60.36C144.909 60.2533 144.637 60.2 144.295 60.2C143.975 60.2 143.703 60.232 143.479 60.296C143.266 60.36 143.106 60.4507 142.999 60.568C142.893 60.6747 142.839 60.792 142.839 60.92C142.839 61.1227 142.93 61.288 143.111 61.416C143.293 61.544 143.538 61.6507 143.847 61.736C144.157 61.8213 144.503 61.9013 144.887 61.976C145.271 62.0507 145.671 62.136 146.087 62.232C146.503 62.3173 146.903 62.4347 147.287 62.584C147.671 62.7333 148.018 62.9307 148.327 63.176C148.637 63.4107 148.882 63.704 149.063 64.056C149.245 64.408 149.335 64.84 149.335 65.352C149.335 66.2587 149.122 66.9947 148.695 67.56C148.279 68.1253 147.703 68.5413 146.967 68.808C146.242 69.064 145.415 69.192 144.487 69.192ZM151.09 69V57.992H154.626V69H151.09ZM156.997 69V57.992H160.533V66.184H166.181V69H156.997Z" fill="#2D6D2C"/>
<path d="M169.519 69L173.535 57.992H177.647L181.663 69H177.919L177.455 67.448H173.599L173.135 69H169.519ZM174.335 64.984H176.735L176.207 63.224C176.165 63.096 176.117 62.9413 176.063 62.76C176.01 62.5787 175.957 62.3867 175.903 62.184C175.85 61.9813 175.797 61.784 175.743 61.592C175.69 61.3893 175.642 61.2133 175.599 61.064H175.471C175.429 61.256 175.37 61.4747 175.295 61.72C175.231 61.9653 175.162 62.2213 175.087 62.488C175.013 62.744 174.938 62.9893 174.863 63.224L174.335 64.984ZM187.708 69.192C185.873 69.192 184.497 68.712 183.58 67.752C182.673 66.792 182.22 65.3733 182.22 63.496C182.22 62.2373 182.455 61.1867 182.924 60.344C183.393 59.5013 184.076 58.8667 184.972 58.44C185.868 58.0133 186.951 57.8 188.22 57.8C188.988 57.8 189.708 57.8907 190.38 58.072C191.063 58.2427 191.66 58.504 192.172 58.856C192.695 59.1973 193.1 59.6293 193.388 60.152C193.676 60.6747 193.82 61.2827 193.82 61.976H190.444C190.444 61.7413 190.385 61.528 190.268 61.336C190.161 61.144 190.012 60.984 189.82 60.856C189.628 60.7173 189.404 60.616 189.148 60.552C188.903 60.4773 188.641 60.44 188.364 60.44C187.948 60.44 187.58 60.4987 187.26 60.616C186.94 60.7227 186.673 60.888 186.46 61.112C186.257 61.336 186.103 61.6027 185.996 61.912C185.889 62.2213 185.836 62.5787 185.836 62.984V64.008C185.836 64.5413 185.927 65 186.108 65.384C186.3 65.7573 186.583 66.0453 186.956 66.248C187.34 66.4507 187.809 66.552 188.364 66.552C188.737 66.552 189.079 66.4987 189.388 66.392C189.708 66.2747 189.964 66.1093 190.156 65.896C190.348 65.6827 190.444 65.4373 190.444 65.16V65.096H187.948V62.856H193.82V69H191.996L191.644 67.912C191.313 68.1893 190.951 68.424 190.556 68.616C190.161 68.808 189.729 68.952 189.26 69.048C188.791 69.144 188.273 69.192 187.708 69.192ZM196.012 69V57.992H202.908C203.729 57.992 204.412 58.1573 204.956 58.488C205.511 58.8187 205.927 59.2507 206.204 59.784C206.481 60.3173 206.62 60.8933 206.62 61.512C206.62 62.216 206.455 62.8453 206.124 63.4C205.793 63.944 205.345 64.3813 204.78 64.712L206.94 69H202.972L201.292 65.304H199.548V69H196.012ZM199.548 62.856H202.028C202.305 62.856 202.54 62.7493 202.732 62.536C202.924 62.312 203.02 62.0187 203.02 61.656C203.02 61.432 202.977 61.2347 202.892 61.064C202.807 60.8933 202.689 60.76 202.54 60.664C202.391 60.5573 202.22 60.504 202.028 60.504H199.548V62.856ZM213.937 69.192C212.689 69.192 211.623 68.9787 210.737 68.552C209.852 68.1253 209.175 67.4907 208.705 66.648C208.236 65.7947 208.001 64.744 208.001 63.496C208.001 62.2373 208.236 61.1867 208.705 60.344C209.175 59.5013 209.852 58.8667 210.737 58.44C211.623 58.0133 212.689 57.8 213.937 57.8C215.196 57.8 216.268 58.0133 217.153 58.44C218.039 58.8667 218.716 59.5013 219.185 60.344C219.655 61.1867 219.889 62.2373 219.889 63.496C219.889 64.744 219.655 65.7947 219.185 66.648C218.716 67.4907 218.039 68.1253 217.153 68.552C216.268 68.9787 215.196 69.192 213.937 69.192ZM213.937 66.552C214.321 66.552 214.657 66.4933 214.945 66.376C215.244 66.248 215.489 66.072 215.681 65.848C215.884 65.624 216.033 65.3573 216.129 65.048C216.225 64.728 216.273 64.3813 216.273 64.008V62.984C216.273 62.6107 216.225 62.2693 216.129 61.96C216.033 61.64 215.884 61.368 215.681 61.144C215.489 60.92 215.244 60.7493 214.945 60.632C214.657 60.504 214.321 60.44 213.937 60.44C213.553 60.44 213.212 60.504 212.913 60.632C212.625 60.7493 212.385 60.92 212.193 61.144C212.001 61.368 211.857 61.64 211.761 61.96C211.665 62.2693 211.617 62.6107 211.617 62.984V64.008C211.617 64.3813 211.665 64.728 211.761 65.048C211.857 65.3573 212.001 65.624 212.193 65.848C212.385 66.072 212.625 66.248 212.913 66.376C213.212 66.4933 213.553 66.552 213.937 66.552Z" fill="#A76F19"/>
</svg>
